<svg id="Layer_1" data-name="Layer 1" xmlns="http://www.w3.org/2000/svg" viewBox="0 0 1055.32 521.25"><defs><style>.cls-1,.cls-2,.cls-3,.cls-4,.cls-5,.cls-6{fill:#fbbb0e;stroke:#fbbb0e;}.cls-1,.cls-2,.cls-3,.cls-4{stroke-miterlimit:10;}.cls-1{opacity:0.7;}.cls-1,.cls-2,.cls-3{isolation:isolate;}.cls-2{opacity:0.9;}.cls-3{opacity:0.4;}.cls-5{stroke-miterlimit:10;stroke-width:1.01px;}.cls-6{stroke-miterlimit:10;}.cls-7{fill:#ffbc00;}</style></defs><g id="Artboard_8" data-name="Artboard 8"><rect id="Rectangle_9" data-name="Rectangle 9" class="cls-1" x="133.81" y="228.28" width="261.03" height="61.23" rx="4.05"/><rect id="Rectangle_10" data-name="Rectangle 10" class="cls-2" x="142.13" y="303.89" width="244.46" height="57.37" rx="3.79"/><rect id="Rectangle_11" data-name="Rectangle 11" class="cls-3" x="117.46" y="145.1" width="293.8" height="68.8" rx="4.55"/><rect id="Rectangle_12" data-name="Rectangle 12" class="cls-4" x="98.08" y="377.9" width="332.48" height="20.13" rx="1.33"/><rect id="Rectangle_13" data-name="Rectangle 13" class="cls-5" x="176.07" y="203.05" width="334.38" height="20.25" rx="1.34" transform="translate(-44.36 327.27) rotate(-48.24)"/><rect id="Rectangle_14" data-name="Rectangle 14" class="cls-6" x="445.55" y="81.69" width="106.64" height="20.13" rx="1.33" transform="translate(-7.48 61.75) rotate(-7.03)"/></g><path class="cls-7" d="M492.75,242.57q12.39,0,12.4,13.2v38.3q0,13.2-12.4,13.2h-25.7v-64.7Zm-1.6,53.1v-41.6a2,2,0,0,0-.55-1.4,1.77,1.77,0,0,0-1.35-.6h-8.2v45.6h8.2a1.77,1.77,0,0,0,1.35-.6A2,2,0,0,0,491.15,295.67Z"/><path class="cls-7" d="M535.85,257.47h2.6v13h-6.6q-3.4,0-3.4,3.5v33.3h-13.4v-48.8h12.2v4.7Q530.15,257.47,535.85,257.47Z"/><path class="cls-7" d="M558.1,252.37a7.12,7.12,0,0,1-5.15,2.1,7.19,7.19,0,0,1-5.2-2.15,7.25,7.25,0,0,1,0-10.4,7.19,7.19,0,0,1,5.2-2.15,7,7,0,0,1,5.15,2.15,7.18,7.18,0,0,1,2.15,5.25A7,7,0,0,1,558.1,252.37Zm-11.85,54.9v-48.8h13.4v48.8Z"/><path class="cls-7" d="M582.44,307.27H569v-48.8h12.2V261q3.1-3.5,9.4-3.5h2.1q12.4,0,12.4,13.2v36.6h-13.4v-38.2a2,2,0,0,0-.55-1.4,1.74,1.74,0,0,0-1.35-.6h-5.5a1.77,1.77,0,0,0-1.35.6,2,2,0,0,0-.55,1.4Z"/><path class="cls-7" d="M652.64,258.47l-10,22.9,11.6,25.9h-13.4l-9.2-20.3h-4v20.3h-13.4v-64.7h13.4V276h4.5l7.3-17.5Z"/><path class="cls-7" d="M694.54,281.87v25.4h-14v-64.7h29.2v12.1h-15.2v15.5h14.2v11.7Z"/><path class="cls-7" d="M742.24,258.47h11.3v48.8h-11.3v-3.6q-3.11,4.6-10.3,4.6h-2.1q-12.4,0-12.4-13.2v-24.4q0-13.2,12.4-13.2h2.1q7.2,0,10.3,4.6Zm-2.1,38.2v-27.6a2,2,0,0,0-.55-1.4,1.77,1.77,0,0,0-1.35-.6h-5.5a1.77,1.77,0,0,0-1.35.6,2,2,0,0,0-.55,1.4v27.6a2,2,0,0,0,.55,1.4,1.77,1.77,0,0,0,1.35.6h5.5a1.77,1.77,0,0,0,1.35-.6A2,2,0,0,0,740.14,296.67Z"/><path class="cls-7" d="M798.74,277.67h-13.4v-8.6a2,2,0,0,0-.55-1.4,1.77,1.77,0,0,0-1.35-.6h-5.5a1.77,1.77,0,0,0-1.35.6,2,2,0,0,0-.55,1.4v27.6a2,2,0,0,0,.55,1.4,1.77,1.77,0,0,0,1.35.6h5.5a1.77,1.77,0,0,0,1.35-.6,2,2,0,0,0,.55-1.4v-8.6h13.4v7q0,13.2-12.4,13.2H775q-12.4,0-12.4-13.2v-24.4q0-13.2,12.4-13.2h11.3q12.4,0,12.4,13.2Z"/><path class="cls-7" d="M825,299.57h4v8.7h-9.4q-12.4,0-12.4-13.2v-47.2h13.4v10.6H829v9.7h-8.4v26.6c0,1.87.37,3.14,1.1,3.8A4.74,4.74,0,0,0,825,299.57Z"/><path class="cls-7" d="M872.14,270.67v24.4q0,13.2-12.4,13.2h-11.3q-12.41,0-12.4-13.2v-24.4q0-13.2,12.4-13.2h11.3Q872.15,257.47,872.14,270.67Zm-13.4,27.2v-30.1a2,2,0,0,0-.55-1.4,1.77,1.77,0,0,0-1.35-.6h-5.5a1.77,1.77,0,0,0-1.35.6,2,2,0,0,0-.55,1.4v30.1a2,2,0,0,0,.55,1.4,1.77,1.77,0,0,0,1.35.6h5.5a1.77,1.77,0,0,0,1.35-.6A2,2,0,0,0,858.74,297.87Z"/><path class="cls-7" d="M902,257.47h2.6v13H898q-3.4,0-3.4,3.5v33.3h-13.4v-48.8h12.2v4.7Q896.34,257.47,902,257.47Z"/><path class="cls-7" d="M933.34,258.47h13.4V311q0,13.2-12.4,13.2h-10q-12.4,0-12.4-13.2v-1.6h13v3.2a2,2,0,0,0,.55,1.4,1.74,1.74,0,0,0,1.35.6h4.6a1.77,1.77,0,0,0,1.35-.6,2,2,0,0,0,.55-1.4v-9.9c-2,1.6-4.74,2.4-8.2,2.4H923q-12.4,0-12.4-13.2v-33.4H924v35a2,2,0,0,0,.55,1.4,1.74,1.74,0,0,0,1.35.6h5.5a1.77,1.77,0,0,0,1.35-.6,2,2,0,0,0,.55-1.4Z"/></svg>
